<svg xmlns="http://www.w3.org/2000/svg" xmlns:xlink="http://www.w3.org/1999/xlink" width="396" zoomAndPan="magnify" viewBox="0 0 297.12 419.249996" height="559" preserveAspectRatio="xMidYMid meet" version="1.0"><defs><g/><clipPath id="747442a6fc"><path d="M 0 0.246094 L 296.238281 0.246094 L 296.238281 417.367188 L 0 417.367188 Z M 0 0.246094 " clip-rule="nonzero"/></clipPath><clipPath id="2d3e64cf53"><path d="M 30.125 42.132812 L 265.921875 42.132812 L 265.921875 375.683594 L 30.125 375.683594 Z M 30.125 42.132812 " clip-rule="nonzero"/></clipPath><clipPath id="d1331ba083"><path d="M 15.714844 42.132812 L 46.308594 42.132812 L 46.308594 90.636719 L 15.714844 90.636719 Z M 15.714844 42.132812 " clip-rule="nonzero"/></clipPath><clipPath id="a5608f45a4"><path d="M 253.476562 41.851562 L 275.863281 41.851562 L 275.863281 77.667969 L 253.476562 77.667969 Z M 253.476562 41.851562 " clip-rule="nonzero"/></clipPath><clipPath id="aba58530b8"><path d="M 249.917969 327.449219 L 280.511719 327.449219 L 280.511719 375.949219 L 249.917969 375.949219 Z M 249.917969 327.449219 " clip-rule="nonzero"/></clipPath><clipPath id="6def4ccfe1"><path d="M 19.617188 340.097656 L 42.003906 340.097656 L 42.003906 375.914062 L 19.617188 375.914062 Z M 19.617188 340.097656 " clip-rule="nonzero"/></clipPath><clipPath id="794bd5f028"><path d="M 89 132.523438 L 207.484375 132.523438 L 207.484375 285.496094 L 89 285.496094 Z M 89 132.523438 " clip-rule="nonzero"/></clipPath></defs><g clip-path="url(#747442a6fc)"><path fill="#ffffff" d="M 0 0.246094 L 296.238281 0.246094 L 296.238281 417.367188 L 0 417.367188 Z M 0 0.246094 " fill-opacity="1" fill-rule="nonzero"/><path fill="#ffffff" d="M 0 0.246094 L 296.238281 0.246094 L 296.238281 417.367188 L 0 417.367188 Z M 0 0.246094 " fill-opacity="1" fill-rule="nonzero"/></g><g clip-path="url(#2d3e64cf53)"><path stroke-linecap="butt" transform="matrix(0.746195, 0, 0, 0.746195, 30.125007, 42.134021)" fill="none" stroke-linejoin="miter" d="M -0.00000963595 -0.00161952 L 316.108775 -0.00161952 L 316.108775 447.094563 L -0.00000963595 447.094563 Z M -0.00000963595 -0.00161952 " stroke="#e30613" stroke-width="6" stroke-opacity="1" stroke-miterlimit="4"/></g><g clip-path="url(#d1331ba083)"><path fill="#e30613" d="M 30.957031 42.132812 L 15.730469 66.285156 L 30.957031 90.4375 L 46.179688 66.285156 Z M 30.957031 42.132812 " fill-opacity="1" fill-rule="nonzero"/></g><g clip-path="url(#a5608f45a4)"><path fill="#e30613" d="M 264.808594 41.851562 L 253.484375 59.820312 L 264.808594 77.785156 L 276.136719 59.820312 Z M 264.808594 41.851562 " fill-opacity="1" fill-rule="nonzero"/></g><g clip-path="url(#aba58530b8)"><path fill="#e30613" d="M 265.15625 327.449219 L 249.933594 351.601562 L 265.15625 375.753906 L 280.382812 351.601562 Z M 265.15625 327.449219 " fill-opacity="1" fill-rule="nonzero"/></g><g clip-path="url(#6def4ccfe1)"><path fill="#e30613" d="M 30.953125 340.097656 L 19.625 358.066406 L 30.953125 376.03125 L 42.277344 358.066406 Z M 30.953125 340.097656 " fill-opacity="1" fill-rule="nonzero"/></g><g clip-path="url(#794bd5f028)"><path fill="#e30613" d="M 205.757812 206.222656 C 204.957031 205.128906 204.210938 203.839844 204.191406 202.488281 C 204.117188 196.855469 202.550781 191.25 199.6875 186.398438 C 197.25 182.261719 193.871094 178.6875 189.898438 175.992188 C 189.523438 173.226562 188.8125 170.5 187.777344 167.90625 C 187.398438 166.960938 186.96875 166.015625 186.292969 165.25 C 185.621094 164.484375 184.664062 163.914062 183.644531 163.910156 C 182.304688 163.90625 181.15625 164.847656 180.238281 165.824219 C 179.90625 166.171875 179.589844 166.539062 179.289062 166.914062 C 179.269531 166.90625 179.25 166.894531 179.226562 166.886719 C 177.5625 166.277344 175.808594 167.464844 174.550781 168.714844 C 173.070312 170.183594 171.773438 171.839844 170.703125 173.628906 C 170.054688 174.707031 169.480469 175.886719 169.449219 177.140625 C 165.191406 180.097656 162.144531 184.535156 158.058594 187.742188 C 155.210938 189.976562 151.980469 191.523438 148.5625 192.660156 C 152.128906 189.367188 154.660156 184.9375 155.503906 180.148438 C 154.433594 181.332031 153.367188 182.511719 152.296875 183.695312 C 153.703125 180.550781 155.105469 177.40625 156.511719 174.261719 C 155.261719 175.519531 154.011719 176.777344 152.761719 178.035156 C 156.550781 171.855469 158.875 164.789062 159.496094 157.570312 C 158.851562 160.167969 157.445312 162.570312 155.496094 164.402344 C 154.179688 155.269531 151.628906 146.316406 147.925781 137.863281 C 148.117188 139.171875 148.308594 140.480469 148.5 141.785156 C 144.164062 138.210938 138.957031 135.703125 133.457031 134.542969 C 134.789062 134.867188 135.953125 135.820312 136.53125 137.066406 C 132.011719 134.238281 126.105469 132.511719 120.773438 132.597656 C 122.421875 133.039062 124.070312 133.484375 125.71875 133.925781 C 124.367188 133.902344 123.015625 133.875 121.664062 133.847656 C 125.929688 139.425781 129.046875 146.144531 129.089844 153.167969 C 129.136719 160.191406 125.667969 167.457031 119.457031 170.734375 C 119.574219 169.640625 119.691406 168.546875 119.8125 167.449219 C 119.617188 169.246094 117.53125 171.582031 116.136719 172.542969 C 116.199219 171.679688 116.429688 170.800781 116.402344 169.941406 C 114.234375 169.730469 112.832031 177.101562 112.082031 178.804688 C 110.382812 182.667969 108.21875 186.328125 105.640625 189.667969 C 101.730469 194.738281 96.800781 199.222656 94.484375 205.191406 C 94.574219 204.957031 94.183594 204.292969 93.632812 203.515625 C 92.71875 202.21875 91.367188 200.613281 91.148438 200.222656 C 90.925781 203.082031 91.652344 206.011719 93.179688 208.441406 C 91.890625 207.582031 90.855469 206.335938 90.246094 204.90625 C 89.980469 208.558594 90.386719 212.257812 91.4375 215.769531 C 90.707031 215.046875 89.976562 214.328125 89.242188 213.605469 C 90.085938 218.644531 91.488281 224.011719 92.964844 228.902344 C 91.949219 228.679688 91.054688 227.976562 90.59375 227.046875 C 90.363281 229.117188 90.695312 231.253906 91.554688 233.15625 C 90.414062 232.15625 89.539062 230.855469 89.03125 229.425781 C 90.066406 235.679688 91.640625 241.84375 93.730469 247.828125 C 92.867188 247.175781 92.003906 246.523438 91.136719 245.871094 C 91.929688 250.773438 94.769531 255.304688 98.828125 258.15625 C 97.1875 257.597656 95.542969 257.039062 93.902344 256.480469 C 97.039062 259.355469 100.742188 261.609375 104.738281 263.078125 C 103.792969 264.050781 102.539062 264.71875 101.203125 264.960938 C 103.480469 264.492188 105.992188 264.253906 108.269531 263.785156 C 107.328125 265.195312 106.386719 266.609375 105.441406 268.023438 C 106.457031 268.175781 107.472656 268.328125 108.484375 268.480469 C 108.011719 269.046875 107.53125 269.613281 107.054688 270.179688 C 108.871094 270.421875 110.6875 270.664062 112.5 270.910156 C 111.953125 271.753906 111.40625 272.597656 110.859375 273.441406 C 112.824219 273.285156 114.785156 273.128906 116.75 272.96875 C 116.042969 273.519531 115.335938 274.070312 114.628906 274.617188 C 117.691406 274.148438 120.753906 273.675781 123.816406 273.207031 C 123.5 274.226562 123.1875 275.246094 122.871094 276.265625 C 124.328125 275.753906 125.640625 274.851562 126.640625 273.675781 C 126.105469 274.792969 125.566406 275.90625 125.03125 277.019531 C 126.527344 275.769531 128.027344 274.519531 129.523438 273.269531 C 129.5625 274.578125 129.605469 275.886719 129.644531 277.195312 C 130.148438 276.203125 130.609375 275.1875 131.027344 274.15625 C 131.167969 274.847656 131.34375 275.535156 131.5625 276.207031 C 132.292969 278.457031 133.425781 280.796875 135.546875 281.847656 C 137.007812 282.570312 138.710938 282.5625 140.34375 282.589844 C 147.035156 282.714844 153.890625 283.507812 160.5 284.539062 C 160.414062 284.578125 160.324219 284.613281 160.238281 284.652344 C 161.046875 284.515625 161.882812 284.546875 162.679688 284.742188 C 163.378906 284.914062 164.050781 285.210938 164.769531 285.269531 C 165.675781 285.34375 166.605469 285.015625 167.261719 284.386719 C 167.917969 283.761719 168.4375 282.785156 168.40625 281.878906 C 169.285156 282.011719 170.234375 281.796875 170.925781 281.234375 C 171.617188 280.667969 172.019531 279.742188 171.882812 278.859375 C 171.75 277.976562 171.15625 277.195312 170.277344 277.042969 C 170.550781 276.570312 170.289062 275.929688 169.84375 275.617188 C 169.398438 275.300781 168.828125 275.234375 168.28125 275.199219 C 166.90625 275.109375 165.65625 275.078125 164.296875 275.285156 C 164.234375 274.648438 163.644531 274.160156 163.015625 274.035156 C 162.390625 273.910156 161.742188 274.078125 161.140625 274.289062 C 160.054688 274.675781 159.128906 275.222656 158.203125 275.910156 C 153.652344 275.910156 149.101562 275.53125 144.613281 274.789062 C 145.289062 274.378906 145.585938 273.679688 146.261719 273.269531 C 147.59375 272.457031 148.949219 271.625 150.226562 270.710938 C 153.582031 269.917969 156.988281 269.34375 160.417969 269.003906 C 161.257812 268.917969 162.171875 268.8125 162.753906 268.207031 C 163.140625 267.800781 163.3125 267.199219 163.199219 266.652344 C 163.085938 266.101562 162.894531 265.757812 162.378906 265.539062 C 162.433594 265.515625 162.484375 265.488281 162.539062 265.460938 C 163.273438 264.957031 164.257812 265 165.050781 264.59375 C 165.941406 264.132812 166.546875 263.152344 166.398438 262.160156 C 166.800781 261.914062 166.90625 261.367188 166.835938 260.902344 C 166.664062 259.734375 165.582031 258.808594 164.402344 258.789062 C 164.226562 258.328125 163.792969 258.003906 163.324219 257.847656 C 162.851562 257.695312 162.347656 257.691406 161.855469 257.710938 C 160.535156 257.757812 159.222656 257.972656 157.949219 258.335938 C 157.996094 258.136719 158.042969 257.9375 158.09375 257.738281 C 159.429688 252.082031 160.777344 246.351562 160.675781 240.542969 C 160.636719 238.21875 160.175781 235.578125 158.226562 234.316406 C 161.050781 235.226562 164.105469 235.484375 167.066406 235.179688 C 171.808594 234.695312 176.328125 232.855469 180.445312 230.449219 C 183.347656 228.753906 186.136719 226.679688 188.652344 224.445312 C 189.714844 225.027344 191.074219 225.339844 192.277344 225.207031 C 192.613281 225.5625 192.886719 225.976562 193.078125 226.421875 C 193.1875 226.683594 193.277344 226.960938 193.46875 227.167969 C 193.652344 227.367188 193.910156 227.480469 194.15625 227.585938 C 194.582031 227.765625 195.011719 227.949219 195.433594 228.132812 C 195.40625 228.105469 195.492188 228.101562 195.519531 228.082031 C 195.417969 228.652344 195.640625 229.269531 196.085938 229.636719 C 196.539062 230.007812 197.230469 230.113281 197.769531 229.894531 C 197.992188 230.820312 199.078125 231.371094 200.011719 231.179688 C 200.945312 230.992188 201.675781 230.210938 202.023438 229.324219 C 202.371094 228.4375 202.503906 227.515625 202.417969 226.566406 C 202.976562 225.757812 203.039062 224.679688 202.757812 223.738281 C 202.476562 222.796875 201.890625 222.027344 201.21875 221.3125 C 201.304688 220.121094 200.707031 218.957031 199.851562 218.132812 C 198.992188 217.308594 197.894531 216.777344 196.78125 216.347656 C 194.425781 215.4375 191.914062 214.9375 189.386719 214.851562 C 189.601562 214.753906 189.820312 214.664062 190.046875 214.597656 C 191.140625 214.269531 192.300781 214.289062 193.433594 214.203125 C 194.910156 214.097656 196.367188 213.8125 197.777344 213.359375 C 199.058594 212.953125 200.335938 211.984375 201.699219 212.238281 C 202.984375 212.480469 204.53125 211.9375 205.574219 211.203125 C 206.390625 210.628906 207.097656 209.738281 207.054688 208.738281 C 207.015625 207.78125 206.320312 206.996094 205.757812 206.222656 " fill-opacity="1" fill-rule="nonzero"/></g><g fill="#e30613" fill-opacity="1"><g transform="translate(15.716477, 32.512316)"><g><path d="M 3.296875 -23.71875 C 4.585938 -24.207031 5.828125 -24.578125 7.015625 -24.828125 C 8.210938 -25.085938 9.328125 -25.21875 10.359375 -25.21875 C 12.785156 -25.21875 14.675781 -24.691406 16.03125 -23.640625 C 17.394531 -22.597656 18.078125 -21.148438 18.078125 -19.296875 C 18.078125 -17.796875 17.609375 -16.546875 16.671875 -15.546875 C 15.734375 -14.546875 14.398438 -13.867188 12.671875 -13.515625 C 14.703125 -13.234375 16.28125 -12.492188 17.40625 -11.296875 C 18.53125 -10.109375 19.09375 -8.570312 19.09375 -6.6875 C 19.09375 -4.375 18.316406 -2.597656 16.765625 -1.359375 C 15.210938 -0.128906 12.972656 0.484375 10.046875 0.484375 C 8.753906 0.484375 7.488281 0.34375 6.25 0.0625 C 5.019531 -0.207031 3.800781 -0.625 2.59375 -1.1875 L 2.59375 -6 L 4.4375 -6 C 4.550781 -4.40625 5.085938 -3.195312 6.046875 -2.375 C 7.015625 -1.5625 8.375 -1.15625 10.125 -1.15625 C 11.8125 -1.15625 13.144531 -1.644531 14.125 -2.625 C 15.101562 -3.601562 15.59375 -4.945312 15.59375 -6.65625 C 15.59375 -8.59375 15.085938 -10.0625 14.078125 -11.0625 C 13.078125 -12.070312 11.601562 -12.578125 9.65625 -12.578125 L 8.078125 -12.578125 L 8.078125 -14.265625 L 8.90625 -14.265625 C 10.84375 -14.265625 12.296875 -14.664062 13.265625 -15.46875 C 14.234375 -16.269531 14.71875 -17.476562 14.71875 -19.09375 C 14.71875 -20.539062 14.316406 -21.644531 13.515625 -22.40625 C 12.722656 -23.175781 11.578125 -23.5625 10.078125 -23.5625 C 8.585938 -23.5625 7.429688 -23.207031 6.609375 -22.5 C 5.785156 -21.800781 5.300781 -20.753906 5.15625 -19.359375 L 3.296875 -19.359375 Z M 3.296875 -23.71875 "/></g></g></g><g fill="#e30613" fill-opacity="1"><g transform="translate(277.719684, 387.070508)"><g><path d="M -3.296875 23.71875 C -4.585938 24.207031 -5.828125 24.578125 -7.015625 24.828125 C -8.210938 25.085938 -9.328125 25.21875 -10.359375 25.21875 C -12.785156 25.21875 -14.675781 24.691406 -16.03125 23.640625 C -17.394531 22.597656 -18.078125 21.148438 -18.078125 19.296875 C -18.078125 17.796875 -17.609375 16.546875 -16.671875 15.546875 C -15.734375 14.546875 -14.398438 13.867188 -12.671875 13.515625 C -14.703125 13.234375 -16.28125 12.492188 -17.40625 11.296875 C -18.53125 10.109375 -19.09375 8.570312 -19.09375 6.6875 C -19.09375 4.375 -18.316406 2.597656 -16.765625 1.359375 C -15.210938 0.128906 -12.972656 -0.484375 -10.046875 -0.484375 C -8.753906 -0.484375 -7.488281 -0.34375 -6.25 -0.0625 C -5.019531 0.207031 -3.800781 0.625 -2.59375 1.1875 L -2.59375 6 L -4.4375 6 C -4.550781 4.40625 -5.085938 3.195312 -6.046875 2.375 C -7.015625 1.5625 -8.375 1.15625 -10.125 1.15625 C -11.8125 1.15625 -13.144531 1.644531 -14.125 2.625 C -15.101562 3.601562 -15.59375 4.945312 -15.59375 6.65625 C -15.59375 8.59375 -15.085938 10.0625 -14.078125 11.0625 C -13.078125 12.070312 -11.601562 12.578125 -9.65625 12.578125 L -8.078125 12.578125 L -8.078125 14.265625 L -8.90625 14.265625 C -10.84375 14.265625 -12.296875 14.664062 -13.265625 15.46875 C -14.234375 16.269531 -14.71875 17.476562 -14.71875 19.09375 C -14.71875 20.539062 -14.316406 21.644531 -13.515625 22.40625 C -12.722656 23.175781 -11.578125 23.5625 -10.078125 23.5625 C -8.585938 23.5625 -7.429688 23.207031 -6.609375 22.5 C -5.785156 21.800781 -5.300781 20.753906 -5.15625 19.359375 L -3.296875 19.359375 Z M -3.296875 23.71875 "/></g></g></g><g fill="#e30613" fill-opacity="1"><g transform="translate(39.642591, 390.070117)"><g><path d="M -2.6875 19.265625 C -3.726562 19.660156 -4.734375 19.960938 -5.703125 20.171875 C -6.671875 20.378906 -7.578125 20.484375 -8.421875 20.484375 C -10.390625 20.484375 -11.925781 20.054688 -13.03125 19.203125 C -14.132812 18.359375 -14.6875 17.179688 -14.6875 15.671875 C -14.6875 14.453125 -14.300781 13.4375 -13.53125 12.625 C -12.769531 11.8125 -11.691406 11.265625 -10.296875 10.984375 C -11.941406 10.742188 -13.222656 10.140625 -14.140625 9.171875 C -15.054688 8.210938 -15.515625 6.96875 -15.515625 5.4375 C -15.515625 3.550781 -14.878906 2.109375 -13.609375 1.109375 C -12.347656 0.109375 -10.535156 -0.390625 -8.171875 -0.390625 C -7.117188 -0.390625 -6.085938 -0.273438 -5.078125 -0.046875 C -4.078125 0.171875 -3.085938 0.507812 -2.109375 0.96875 L -2.109375 4.875 L -3.609375 4.875 C -3.703125 3.582031 -4.140625 2.601562 -4.921875 1.9375 C -5.703125 1.269531 -6.800781 0.9375 -8.21875 0.9375 C -9.59375 0.9375 -10.675781 1.332031 -11.46875 2.125 C -12.269531 2.925781 -12.671875 4.019531 -12.671875 5.40625 C -12.671875 6.988281 -12.257812 8.1875 -11.4375 9 C -10.625 9.8125 -9.425781 10.21875 -7.84375 10.21875 L -6.5625 10.21875 L -6.5625 11.59375 L -7.234375 11.59375 C -8.804688 11.59375 -9.984375 11.914062 -10.765625 12.5625 C -11.554688 13.21875 -11.953125 14.203125 -11.953125 15.515625 C -11.953125 16.679688 -11.628906 17.578125 -10.984375 18.203125 C -10.335938 18.828125 -9.40625 19.140625 -8.1875 19.140625 C -6.976562 19.140625 -6.035156 18.851562 -5.359375 18.28125 C -4.691406 17.707031 -4.300781 16.851562 -4.1875 15.71875 L -2.6875 15.71875 Z M -2.6875 19.265625 "/></g></g></g><g fill="#e30613" fill-opacity="1"><g transform="translate(253.476868, 27.813812)"><g><path d="M 2.6875 -19.265625 C 3.726562 -19.660156 4.734375 -19.960938 5.703125 -20.171875 C 6.671875 -20.378906 7.578125 -20.484375 8.421875 -20.484375 C 10.390625 -20.484375 11.925781 -20.054688 13.03125 -19.203125 C 14.132812 -18.359375 14.6875 -17.179688 14.6875 -15.671875 C 14.6875 -14.453125 14.300781 -13.4375 13.53125 -12.625 C 12.769531 -11.8125 11.691406 -11.265625 10.296875 -10.984375 C 11.941406 -10.742188 13.222656 -10.140625 14.140625 -9.171875 C 15.054688 -8.210938 15.515625 -6.96875 15.515625 -5.4375 C 15.515625 -3.550781 14.878906 -2.109375 13.609375 -1.109375 C 12.347656 -0.109375 10.535156 0.390625 8.171875 0.390625 C 7.117188 0.390625 6.085938 0.273438 5.078125 0.046875 C 4.078125 -0.171875 3.085938 -0.507812 2.109375 -0.96875 L 2.109375 -4.875 L 3.609375 -4.875 C 3.703125 -3.582031 4.140625 -2.601562 4.921875 -1.9375 C 5.703125 -1.269531 6.800781 -0.9375 8.21875 -0.9375 C 9.59375 -0.9375 10.675781 -1.332031 11.46875 -2.125 C 12.269531 -2.925781 12.671875 -4.019531 12.671875 -5.40625 C 12.671875 -6.988281 12.257812 -8.1875 11.4375 -9 C 10.625 -9.8125 9.425781 -10.21875 7.84375 -10.21875 L 6.5625 -10.21875 L 6.5625 -11.59375 L 7.234375 -11.59375 C 8.804688 -11.59375 9.984375 -11.914062 10.765625 -12.5625 C 11.554688 -13.21875 11.953125 -14.203125 11.953125 -15.515625 C 11.953125 -16.679688 11.628906 -17.578125 10.984375 -18.203125 C 10.335938 -18.828125 9.40625 -19.140625 8.1875 -19.140625 C 6.976562 -19.140625 6.035156 -18.851562 5.359375 -18.28125 C 4.691406 -17.707031 4.300781 -16.851562 4.1875 -15.71875 L 2.6875 -15.71875 Z M 2.6875 -19.265625 "/></g></g></g></svg>